<svg xmlns="http://www.w3.org/2000/svg" viewBox="0 0 746.969 1058.27"><defs><style>.cls-1{fill:#daa8e7;}</style></defs><g id="Warstwa_2" data-name="Warstwa 2"><g id="Warstwa_2-2" data-name="Warstwa 2"><path class="cls-1" d="M263.544,468.74c-.016-3,.015-6,0-9a1.514,1.514,0,0,0-1.1-1.446c-4.491-.674-12.166-1.944-12.542-7.724-.242-3.729,2.773-6.98,4.644-9.934q2.912-4.595,5.365-9.457a117.345,117.345,0,0,0,12-41.56,112.346,112.346,0,0,0,0-21.72c-.3-3.1-1.068-6.734.3-9.691,1.384-2.989,4.834-3.8,7.768-4.4,2.895-.591,5.752-1.06,8.274-2.716,2.317-1.522,4.349-3.9,4.217-6.834-.147-3.241-3.264-5.019-3.744-8.041-.606-3.806,2.807-7.94,4.614-11q6.436-10.907,12.874-21.813c3.321-5.627,8.135-12.94,5.034-19.669-1.425-3.1-4.314-4.808-6.784-6.967-1.659-1.449-4.185-4.695-2.456-6.984.914-1.21,2.839-1.236,4.164-1.7a6.481,6.481,0,0,0,3.479-2.654c1.463-2.34,1.329-5.325,1.185-7.966-.378-6.942.119-14.894,5.142-20.244a14.263,14.263,0,0,1,8.529-4.591c3.463-.392,6.217,1.5,9.513,2.047,5.608.927,9.017-3.613,9.8-8.654a21.9,21.9,0,0,0-.235-7.813c-.6-2.895-1.575-5.688-1.932-8.638-.322-2.66-.339-5.772,1.445-7.963,2.137-2.623,5.735-2.682,8.82-2.332,3.916.443,7.814,1.326,11.693,2.017q6.306,1.123,12.613,2.248c2.97.523,6.24.8,7.891-2.275,1.617-3.016,2.179-6.959,2.649-10.3a57.023,57.023,0,0,0-1.046-21.292,54.175,54.175,0,0,0-3.375-9.69l-.9,2.2a45.417,45.417,0,0,1,16.6-2.947,1.5,1.5,0,0,0,0-3,47.842,47.842,0,0,0-17.4,3.054,1.532,1.532,0,0,0-.9,2.2,52.414,52.414,0,0,1,4.569,21.7,51.2,51.2,0,0,1-1.079,10.577,40.947,40.947,0,0,1-1.339,4.991c-.294.844-.576,1.7-1.476,2.05a5.783,5.783,0,0,1-2.805-.056c-8.13-1.317-16.191-3.145-24.346-4.3-3.083-.438-6.352-.613-9.248.74a9.5,9.5,0,0,0-5.137,6.394c-1.431,5.837,1.361,11.209,2.045,16.881.481,3.992-.132,11.674-5.766,11.336a20,20,0,0,1-4.983-1.473,13.825,13.825,0,0,0-4.779-.761,15.942,15.942,0,0,0-8.8,3.132c-5.618,4.089-8.087,10.632-8.711,17.36-.322,3.469.137,6.892.012,10.351a6.232,6.232,0,0,1-1.07,3.811c-1.09,1.293-3.091,1.307-4.573,1.876a5.659,5.659,0,0,0-3.69,6.125c.324,3.053,2.189,5.392,4.49,7.273,2.647,2.163,5.706,4.117,6.109,7.829.382,3.521-1.3,7.075-2.941,10.079-4.075,7.473-8.646,14.712-12.973,22.043-2.017,3.417-4.27,6.786-6.012,10.353-1.541,3.154-2.273,6.6-.392,9.779.761,1.288,1.942,2.407,2.427,3.844A3.835,3.835,0,0,1,288.1,347.4c-2.221,2.247-5.287,2.808-8.255,3.39-2.851.559-5.824,1.246-8.09,3.18-2.494,2.13-3.3,5.35-3.278,8.517.025,3.481.631,6.961.811,10.44q.282,5.432.035,10.872a113.42,113.42,0,0,1-10.494,42.766q-2.36,5.046-5.206,9.845c-1.8,3.025-4.107,5.863-5.594,9.056a9.946,9.946,0,0,0-.2,8.719,11.131,11.131,0,0,0,5.738,4.9,32.072,32.072,0,0,0,8.077,2.106l-1.1-1.447c.015,3-.016,6,0,9a1.5,1.5,0,0,0,3,0Z"/><path class="cls-1" d="M205.906,801.674a41.242,41.242,0,0,0,6.007-19.176,40.667,40.667,0,0,0-.661-9.972c-.643-3.382-2.56-7.01-2.12-10.5.382-3.029,3.214-4.838,4.638-7.355a8.1,8.1,0,0,0,1.05-3.983c.023-1.916-.421-3.713,1.364-4.96,2.144-1.5,4.829-2.013,7-3.533a20.594,20.594,0,0,0,5.4-5.626c6.662-10.171,4.865-22.934,1.458-33.865-2.2-7.072-4.963-14.021-6.163-21.364a15.1,15.1,0,0,1-.3-4.839c.355-2.073,2-2.834,3.761-3.567a16.8,16.8,0,0,0,6.056-3.982c6.483-6.942,6.87-19.468-.656-25.826-2.555-2.159-5.667-3.575-8.122-5.853a17.575,17.575,0,0,1-4.565-7.012c-1.972-5.552-1.809-11.711-.9-17.457,1.1-6.944,3.889-13.512,2.123-20.606-.917-3.685-2.464-7.176-3.374-10.867a74.839,74.839,0,0,1-1.8-11.951c-.635-7.919-.905-15.9-1.092-23.843a171.517,171.517,0,0,1,.732-23.37c1.472-12.96,6.776-27.551,20.152-32.365a20.714,20.714,0,0,1,9.387-1.109c3.34.371,6.657,1.245,10.028.66,5.6-.97,7.4-5.889,7.954-10.931a87.808,87.808,0,0,0,.324-9.583,1.5,1.5,0,0,0-3,0,77.648,77.648,0,0,1-.377,10.036c-.274,2.079-.74,4.559-2.322,6.077-2.431,2.332-6.425,1.631-9.417,1.184a29.9,29.9,0,0,0-9.112-.31c-13.055,2.009-21.526,13.879-24.723,25.863a93.824,93.824,0,0,0-2.619,21.394c-.241,8.087.061,16.177.427,24.255.348,7.671.554,15.428,2.152,22.967.8,3.751,2.181,7.277,3.3,10.931a21.764,21.764,0,0,1,.379,11.546c-2.437,11.04-5.516,24.233,1.992,34.125a25.723,25.723,0,0,0,6.85,5.891c2.448,1.583,4.817,3.184,6.314,5.753a15.988,15.988,0,0,1,.728,13.631,14.452,14.452,0,0,1-3.968,5.7c-2.126,1.829-4.963,2.263-7.144,3.95-2.556,1.977-2.741,5.175-2.371,8.15a66.5,66.5,0,0,0,2.273,10.5c3.616,12.334,9.686,24.82,6.016,37.89-1.423,5.069-4.337,9.815-9.1,12.335-2.267,1.2-5.013,1.733-6.75,3.763-2.309,2.7-.374,6.234-2.164,9.064-1.476,2.335-3.74,4.041-4.536,6.795-1,3.472.448,6.99,1.334,10.313a37.851,37.851,0,0,1-4.432,29.515c-1.014,1.649,1.58,3.158,2.59,1.514Z"/><path class="cls-1" d="M396.6,158.139c.564,3.174,1.352,6.31,2.05,9.456a34.971,34.971,0,0,0,.887,4.189c.676,1.874,3.083,2.423,4.787,3.264,9.825,4.854,19.781,9.439,29.535,14.437,8.248,4.228,16.583,8.793,23.249,15.336A39.091,39.091,0,0,1,465.2,215.99c2.339,4.957,3.633,10.447,5.215,15.677q5.139,17,10.28,33.992c3.343,11.053,7.478,22.185,9.474,33.582.883,5.045.891,10.183,1.677,15.24a29.953,29.953,0,0,0,5.551,13.291c2.708,3.755,6.243,7.525,7.078,12.238.782,4.41-.633,9.442-5.648,10.087-2.427.313-4.877-.015-7.243.753a24.35,24.35,0,0,0-5.315,2.852c-1.659,1.047-3.561,2.361-5.617,2.251-2.273-.122-4.113-1.847-5.918-3.038-2.661-1.757-5.928-2.843-8.735-.723-2.645,2-3.374,5.771-3.112,8.895.229,2.72,1.19,5.435.849,8.179-.4,3.193-2.667,5.127-4.747,7.354a45.675,45.675,0,0,0-7.288,10.385,50.153,50.153,0,0,0-5.427,24.234,47.939,47.939,0,0,0,2.044,12.542c1.291,4.211,3.476,7.9,5.3,11.882,2.518,5.511,1.259,11.064-.227,16.689a82.758,82.758,0,0,1-4.934,13.708,86.082,86.082,0,0,1-16.124,23.551,82.083,82.083,0,0,1-10.631,9.3c-3.686,2.687-7.8,4.893-11.08,8.1-3.534,3.448-5.042,8.277-8.343,11.87-2.6,2.83-6.111,4.628-9.289,6.709-2.675,1.752-5.453,3.747-7.011,6.623-2.044,3.774-.539,7.115-.519,11.1.036,7.081-9.635,10.121-12.088,16.282-1.641,4.122.617,8.085-.08,12.212-.9,5.328-8.014,3.525-11.777,5.12-3,1.272-5.175,3.688-4.541,7.064a1.534,1.534,0,0,0,1.845,1.047c3.9-.605,7.116,2.587,8.419,5.983,1.492,3.886.489,8.263-.622,12.114-2.223,7.706-4.506,15.182-5.568,23.168-1.9,14.262-1.415,29.891,3.161,43.645,1.785,5.365,4.525,10.611,9.081,14.125,5.347,4.125,12.2,4.041,18.1,6.878,5.7,2.744,8.626,8.605,12.328,13.407a26.666,26.666,0,0,0,5.313,5.412c3.081,2.245,6.739,3.25,10.16,4.822a13.778,13.778,0,0,1,8.51,13.794c-.241,5.687-3.349,11.411-8.9,13.394-1.8.645-1.027,3.544.8,2.893,9.586-3.423,13.571-15.439,9.619-24.485-2.517-5.761-7.793-7.89-13.281-10.15a22.006,22.006,0,0,1-8.57-5.916c-2.418-2.767-4.3-5.959-6.543-8.861-4.347-5.615-9.426-7.84-16.167-9.587-3.8-.984-7.512-2.1-10.5-4.764a24.155,24.155,0,0,1-5.828-8.525c-3.232-7.454-4.4-15.988-4.969-24.027a106.7,106.7,0,0,1,1.427-26.617,119.6,119.6,0,0,1,3.764-14.695c1.328-4.19,2.7-8.54,2.368-13-.5-6.642-5.8-13-12.888-11.9l1.845,1.047c-.913-4.863,9.057-4.134,11.767-5.184,3.651-1.414,4.963-4.72,4.683-8.438-.342-4.546-1.474-8.227,1.856-11.959,2.315-2.593,5.28-4.529,7.5-7.215a11.192,11.192,0,0,0,2.584-9.185c-.3-2.258-.907-4.49-.049-6.706a10.96,10.96,0,0,1,3.479-4.32c2.869-2.345,6.245-3.99,9.228-6.178,3.4-2.49,5.557-5.544,7.661-9.153,4.991-8.562,14.442-12.536,21.635-19.018a88.209,88.209,0,0,0,17.28-21.407,86.668,86.668,0,0,0,9.74-25.247c1.043-4.926,1.411-9.421-.63-14.146-1.874-4.337-4.318-8.276-5.628-12.861a46.679,46.679,0,0,1,.558-26.926,45.046,45.046,0,0,1,6.058-12.181c2.591-3.677,6.859-6.582,8.53-10.817,1.823-4.621-.879-9.183-.166-13.844.356-2.326,1.674-4.833,4.436-4.335,1.981.357,3.7,2.141,5.357,3.169a9.092,9.092,0,0,0,9.286.648c1.823-.865,3.435-2.1,5.182-3.1,2.722-1.552,5.3-1.374,8.3-1.631,7.68-.657,10.4-8.211,8.616-14.992-1.156-4.384-4.247-7.926-6.857-11.511a30.035,30.035,0,0,1-5.795-15.044c-.569-5.133-.784-10.249-1.83-15.322-1.119-5.427-2.8-10.722-4.4-16.02l-10.315-34.107-5.117-16.919c-1.5-4.959-2.805-10.06-5.023-14.763-3.728-7.9-10.239-14.01-17.352-18.888-8.08-5.54-17.05-9.783-25.838-14.055-4.919-2.391-9.862-4.734-14.781-7.124q-1.994-.969-3.982-1.95c-.893-.441-2.553-.867-3.214-1.487s-.842-3.095-1.081-4.174c-.7-3.145-1.486-6.282-2.05-9.456-.337-1.9-3.229-1.093-2.893.8Z"/><path class="cls-1" d="M205.6,800.18a46.845,46.845,0,0,0-6.277-6.2,13.663,13.663,0,0,0-5-2.767c-3.1-.756-5.449,1-6.506,3.843-1.265,3.41-1.021,7.432-.654,10.98a77.964,77.964,0,0,0,2.869,14.127,62.8,62.8,0,0,0,5.127,12.744,23.807,23.807,0,0,0,3.024,4.368,25.538,25.538,0,0,1,2.744,2.719c.625.959-.2,1.491-.811,2.211a6.361,6.361,0,0,0-1.3,2.315,7.024,7.024,0,0,0,4.107,8.424c1.472.518,4.521,0,5.3,1.628a6.287,6.287,0,0,1,.248,2.876c-.046,1.3-.073,2.608-.052,3.913a69.948,69.948,0,0,0,7.1,29.549c2.333,4.767,5.265,9.2,7.844,13.831,2.421,4.346,4.179,9,6.492,13.395a37.166,37.166,0,0,0,9.059,10.977c3.675,3.155,7.605,6.207,9.82,10.632a11.683,11.683,0,0,1,1.225,6.639l1.9-1.446-9.825-1.746a1.535,1.535,0,0,0-1.694.69c-1.468,3.354.487,6.231,2.533,8.836a8.309,8.309,0,0,1,1.81,3.422c.17.8.309,2.147-.643,2.506l1.845,1.048c-1.281-4.211-7.649-5.314-9.986-1.395-3.063,5.138,2.992,9.861,6.425,12.718,8,6.66,15.122,18.164,10.733,28.767-1.182,2.856-2.971,5.6-2.609,8.83a9.309,9.309,0,0,0,3.865,6.318c5.366,4.04,12.561,2.29,18.641,1.362l21.127-3.226c2.719-.415,5.86-.544,8.237-2.089,2.448-1.591,3.047-4.325,2.887-7.08-.428-7.362-4.014-14.489-2.956-21.942.435-3.067,1.764-6.1,4.426-7.848,2.309-1.514,5.234-2.081,7.7-.611a1.513,1.513,0,0,0,2.257-1.3c-.1-5.18,5.586-7.507,9.852-8.45a43.525,43.525,0,0,1,9.422-.7,99.83,99.83,0,0,1,11.671.691c1.737.206,3.51.559,5.206-.069a5.932,5.932,0,0,0,2.98-2.651,15.778,15.778,0,0,0,1.438-3.823q.805-2.922,1.6-5.847c2.034-7.48,4.024-14.974,5.828-22.513,3.558-14.867,6.409-29.967,7.363-45.246a177.407,177.407,0,0,0-.125-22.686,49.605,49.605,0,0,1,.116-11.2c.556-3.406,1.99-6.547,3.088-9.8,1.124-3.328,1.911-7.02.55-10.4-.63-1.565-1.721-2.856-2.479-4.35-.285-.561-.688-1.318-.391-1.952.312-.666,1.293-.939,1.873-1.312,3.041-1.956,2.543-5.4.342-7.821-1.891-2.082-6.183-2.806-6.865-5.776l-1.447,1.9a35.454,35.454,0,0,0,27.921-20.35l-2.8-.757c-.291,4.043,4.641,5.934,7.907,4.7a18.7,18.7,0,0,0,5.3-3.666c1.6-1.362,4.034-3.113,6.187-1.941a1.51,1.51,0,0,0,2.052-.538l5.421-12.777q1.329-3.13,2.657-6.263a43.547,43.547,0,0,0,2.526-6.222c.937-3.767-1.723-6.246-5.006-7.433-1.514-.547-3.266-.8-4.576-1.8-.449-.342-.628-.582-.63-.743a3.684,3.684,0,0,1,.269-1.23,11.845,11.845,0,0,1,6.406-6.644c1.772-.748.245-3.333-1.514-2.59a14.72,14.72,0,0,0-6.712,6.134c-1.028,1.745-2.172,4.332-.865,6.214,2.13,3.067,6.358,2.444,8.957,4.723,1.758,1.542.354,3.836-.382,5.571l-2.764,6.514q-3.187,7.515-6.377,15.031l2.052-.538c-3.757-2.046-7.471.379-10.309,2.83-1.309,1.129-2.858,2.637-4.677,2.783-1.311.105-3.031-.616-2.923-2.117.1-1.437-2.189-2.113-2.8-.757a32.489,32.489,0,0,1-25.33,18.864,1.528,1.528,0,0,0-1.446,1.9c.646,2.814,3.187,4.216,5.518,5.523a6.2,6.2,0,0,1,2.948,2.83c.63,1.546-.874,1.951-1.914,2.636-2.791,1.838-2.3,4.78-.8,7.314a18.455,18.455,0,0,1,2.054,3.7,9.688,9.688,0,0,1,.026,5c-.7,3.195-2.122,6.173-3.1,9.284a32.978,32.978,0,0,0-1.315,10.447c.059,3.76.447,7.508.591,11.266.148,3.841.146,7.688.015,11.53-.521,15.288-3.12,30.413-6.532,45.3-1.732,7.558-3.677,15.065-5.69,22.553-.978,3.635-1.885,7.3-2.977,10.908a5.889,5.889,0,0,1-1.76,3.2c-1.461,1.039-4.122.214-5.75.039a99.866,99.866,0,0,0-12.742-.55,37.171,37.171,0,0,0-9.829,1.231c-5.114,1.509-10.428,4.96-10.318,10.9l2.258-1.295c-4.119-2.456-9.324-1.072-12.629,2.126-3.951,3.821-4.588,9.837-3.97,15.023A87.257,87.257,0,0,0,301.077,997c.642,2.834,1.578,6.142,1.1,9.066-.455,2.809-3.354,3.26-5.716,3.63-3.255.51-6.515,1-9.772,1.492-6.609,1.009-13.214,2.168-19.846,3.014-2.951.377-6.225.613-9.01-.642-2.078-.936-4.081-2.761-4.4-5.129-.39-2.879,1.7-5.656,2.677-8.226a20.162,20.162,0,0,0,1.277-7.211,27.981,27.981,0,0,0-4.439-14.316,39.9,39.9,0,0,0-5.422-6.938c-2.031-2.085-4.431-3.721-6.5-5.751-1.4-1.373-4.155-4.341-2.364-6.407a2.713,2.713,0,0,1,4.343.914,1.513,1.513,0,0,0,1.845,1.048c2.955-1.115,3.426-4.247,2.514-6.988a13.056,13.056,0,0,0-2.358-3.954c-1.016-1.3-2.846-3.414-2.064-5.2l-1.694.689,9.825,1.746a1.533,1.533,0,0,0,1.9-1.447c1.144-10.037-8.5-15.9-14.724-21.913-3.478-3.36-5.71-7.437-7.7-11.8a138.049,138.049,0,0,0-6.734-13.169,110.677,110.677,0,0,1-7.232-13.493,67.544,67.544,0,0,1-4.185-14.345,74.355,74.355,0,0,1-.9-14.806c.047-2-.285-4.11-2.027-5.345-1.653-1.173-3.627-.769-5.448-1.365a3.846,3.846,0,0,1-2.445-3.238c-.251-2.059,1.254-2.82,2.144-4.419,1.813-3.256-1.66-5.349-3.509-7.446-2.227-2.527-3.931-6.292-5.226-9.624a81.334,81.334,0,0,1-3.915-13.542,46.972,46.972,0,0,1-1.094-12.269,12.94,12.94,0,0,1,.273-2.116c.071-.344.154-.686.255-1.022.044-.148.093-.294.142-.44.072-.218.158-.4.1-.281a8.645,8.645,0,0,1,.408-.766c.226-.388-.024-.035.316-.406a3.155,3.155,0,0,1,.293-.273c.015-.013-.194.15.051-.024.45-.32.007-.072.438-.2a3.352,3.352,0,0,1,.341-.076c-.012,0-.238,0,.066.007.147,0,.292,0,.438.01.211.012-.2-.053.184.028a5.626,5.626,0,0,1,1.839.694,23.041,23.041,0,0,1,5.144,4.1c1.117,1.109,2.178,2.273,3.212,3.461,1.27,1.459,3.384-.67,2.121-2.121Z"/><path class="cls-1" d="M382.766,884,373.7,911.713l-4.493,13.739q-1.122,3.435-2.246,6.87a15.454,15.454,0,0,0-.977,6.7c.3,2.552.964,5.079,1.489,7.593l1.7,8.145c.322,1.545,2.449,1.3,2.893,0,3.317-9.752,6.717-19.48,9.937-29.265a111.82,111.82,0,0,0,3.934-14.569c.929-5.022,1.353-10.119,2.11-15.166q1.286-8.575,3.394-16.994a1.518,1.518,0,0,0-1.446-1.9c-1.45,0-2.751,1.131-3.725,2.088a13.141,13.141,0,0,0-3.177,4.888c-.657,1.819,2.241,2.6,2.893.8a9.6,9.6,0,0,1,2.162-3.318,8.756,8.756,0,0,1,1.128-1.024,6.3,6.3,0,0,0,.642-.4c.106-.105.314-.032.077-.032l-1.446-1.9q-1.836,7.359-3.061,14.852c-.816,5.033-1.278,10.112-2.075,15.147-1.587,10.038-5.266,19.616-8.526,29.2l-5.714,16.8h2.893c-.951-4.551-1.944-9.1-2.849-13.655a12.347,12.347,0,0,1,.428-6.545c.723-2.272,1.481-4.534,2.222-6.8l8.753-26.769,5.035-15.4c.6-1.84-2.3-2.628-2.893-.8Z"/><path class="cls-1" d="M441.145,840.794c-3.385,1.3-6.77.626-10.258.431-2.111-.117-3.035,1.3-3.959,2.952l-3.4,6.08L416.846,862.2c-1.749,3.126-4.023,6.4-4.247,10.085a6.024,6.024,0,0,0,1.488,4.447c.725.8,2.934,1.622,3.036,2.8.069.791-.873,1.639-1.356,2.155a21.2,21.2,0,0,0-2.379,2.754c-1.732,2.644-.552,5.217,1.855,6.884a7.963,7.963,0,0,1,3.078,2.921,9.341,9.341,0,0,1,.715,4.479,26.9,26.9,0,0,1-.7,4.754c-.383,1.733-.99,3.682,0,5.333,1.841,3.063,6.169,1.99,8.173-.24,2.622-2.917,2.509-6.714,3.372-10.311.779-3.247,3.022-5.572,5.336-7.844,2.217-2.177,4.583-4.4,5.886-7.281.335-.742.561-1.514.848-2.272a2.986,2.986,0,0,1,1.636-1.729c1.438-.782,2.684-1.8,2.876-3.537.371-3.331-3.049-5.471-4.427-8.11-1.635-3.133-.407-7,1.138-9.911,3.367-6.344,9.917-10.94,10.629-18.553a5.42,5.42,0,0,0-1.4-4.7,4.845,4.845,0,0,0-4.438-.869c-2.51.681-4.3,3.3-5.8,5.247a20.229,20.229,0,0,0-1.921,2.784c-.9,1.7,1.683,3.222,2.591,1.514a25.083,25.083,0,0,1,4.146-5.361,3.275,3.275,0,0,1,2.337-1.379c1.84-.068,1.626,2.031,1.413,3.322-1.088,6.616-7.28,10.95-10.24,16.657a16.476,16.476,0,0,0-2.163,8.886,10.037,10.037,0,0,0,1.3,4.2c.814,1.382,1.994,2.51,2.915,3.817.615.873,1.491,2.064.408,2.9-.527.409-1.2.628-1.753,1a5,5,0,0,0-1.695,1.926c-.658,1.3-.929,2.718-1.694,3.98a19.327,19.327,0,0,1-2.745,3.386,62.524,62.524,0,0,0-5.676,6.051c-2.085,2.814-2.533,5.892-3.114,9.258a10.5,10.5,0,0,1-1.486,4.28c-.662.962-2.175,2.336-3.472,1.667-1.19-.613-.146-3.017.061-4.017a30.636,30.636,0,0,0,.646-4.679,10.967,10.967,0,0,0-2.137-7.691,15.1,15.1,0,0,0-3.134-2.476c-.815-.572-1.533-1.232-1.084-2.265.834-1.918,2.979-3.028,3.93-4.915a4.144,4.144,0,0,0,.357-3.039c-.444-1.506-1.68-2.3-2.883-3.161-2.931-2.1-.833-5.925.536-8.381q3.392-6.084,6.8-12.159l3.4-6.08,1.7-3.04a5.354,5.354,0,0,1,.673-1.192c.4-.376.631-.284,1.2-.221,3.5.395,7.195.7,10.556-.591,1.784-.686,1.01-3.587-.8-2.893Z"/></g><g id="Warstwa_1-2" data-name="Warstwa 1"><path class="cls-1" d="M568.748,123.5c1.195,1.888,3.167,5.261,5.865,4.915,2.246-.289,3.028-2.944,3.469-4.809,1.538-6.492,1.281-13.319,3.219-19.737a10.457,10.457,0,0,1,1.559-3.442c1.452-1.855,4.184-2.309,6.02-3.7,4.284-3.242,2.873-8.613,4.789-12.973,1.366-3.1,4.736-2,7.44-2.21a6.588,6.588,0,0,0,5.515-3.351c2.421-4.443.328-9.7-3.568-12.426-2.813-1.972-6.279-2.785-9.592-3.46-4.327-.881-8.663-1.716-13-2.574l-26.7-5.286-.4,2.946a47.611,47.611,0,0,0,24.563-4.609,47.892,47.892,0,0,0,10.308-6.716c3.177-2.7,6.568-6.027,8.353-9.857,1.643-3.523,1.4-7.37-1.961-9.748a40.211,40.211,0,0,0-5.99-3.061l-7.557-3.611-15.115-7.221c-4.413-2.108-8.845-4.61-13.583-5.92-4.013-1.11-8.292-1.112-11.97,1.027a9.8,9.8,0,0,0-5.21,8.659c.117,3.66,2.116,6.871,2.535,10.454.174,1.5-.207,3.207-1.753,3.859s-3.136-.59-4.117-1.669c-3.069-3.376-2.42-7.257-1.5-11.342.9-4,1.929-8.337.14-12.256-2.739-6-9.946-6.421-15.32-3.993-8.818,3.983-10.264,13.632-9.246,22.355.316,2.708.8,5.391,1.259,8.076.457,2.651,1.131,5.48.8,8.185a6.169,6.169,0,0,1-9.6,4.419l.743,1.3-.563-27.029a1.528,1.528,0,0,0-1.5-1.5c-9.127-.135-11.08,11.432-11.992,18.345A71.651,71.651,0,0,1,471.434,69.01h2.591c-5.087-7.593-.566-17.014,2.41-24.526,3.13-7.9,6.568-16.824,2.506-25.037l-.234,1.818c3.747-4.1,2.352-11.7-3.216-13.456a8.45,8.45,0,0,0-8.039,2.015,8.255,8.255,0,0,0-2.2,3.222c-.7,1.921-.17,3.7-.216,5.671-.117,4.991-7.992,2.558-10.937,2.2-4.316-.522-9.822-.253-11.3,4.752-.878,2.966.329,6.016.784,8.941a6.247,6.247,0,0,1-.717,4.705c-1.074,1.536-2.9,2.5-4.37,3.607-5.013,3.794-8.865,8.8-12.8,13.645-3.849,4.74-7.924,9.719-13.471,12.532-3.35,1.7-6.872,2-10.561,2.26-3.619.26-7.213.836-10.038,3.3-2.428,2.116-3.726,5.379-2.523,8.494a10.5,10.5,0,0,0,4.815,4.984c2.287,1.337,4.789,2.252,7.1,3.552,1.913,1.078,3.728,2.395,3.606,4.8l.743-1.3c-2.9,1.886-6.56-.128-9.587-.737a14.286,14.286,0,0,0-6.133.035c-3.961.921-7.344,3.489-10.37,6.086-5.364,4.606-12.134,13.57-20.222,10.969l.9,2.2,3.863-8.912a1.529,1.529,0,0,0-.538-2.053c-6.506-3.205-18.072-6.942-22.834,1-1.385,2.309-1.493,4.984-1.981,7.561-.591,3.122-2.226,4.756-4.747,6.526-3.694,2.592-6.2,5.711-6.355,10.4a12.6,12.6,0,0,0,6.388,11.589l-.743-1.3c.034,1.21-1.494,1.532-2.466,1.39-1.366-.2-2.583-1.26-3.715-1.985a10.614,10.614,0,0,0-6.734-1.864c-4.98.42-9.147,3.938-11.358,8.268a30.927,30.927,0,0,0-2.615,8.035,38.581,38.581,0,0,0-1.147,8.377c.15,5.408,4.283,7.059,7.978,9.983,4.984,3.943.92,10.011-4.182,11.19-3.246.75-6.686.219-9.92-.318-2.408-.4-5.321-.775-7.2-2.493-3.169-2.9-1.373-8.391-.988-12.044.381-3.615-.2-7.536-4-9.035-5.108-2.015-9.248,3.344-11.378,7.242-1.4,2.562-2.326,5.061-4.546,7.083-1.782,1.623-4.5,3.236-6.337.906-.906-1.148-3.071.1-2.508,1.459,2.681,6.462-7.068,10.845-10.252,15.073-2.957,3.928-4.835,10.492.64,13.234,1.4.7,3.675,1.039,3.475,3.038-.181,1.817-1.917,3.334-3.214,4.439a92.555,92.555,0,0,1-9.677,6.924c-6.18,4.021-12.588,7.961-17.514,13.538s-8.468,12.677-7.751,20.285a1.513,1.513,0,0,0,2.795.757c5.686-10.1,16.707-15.193,27.045-19.262,13.4-5.274,26.894-10.311,40.341-15.46l-1.845-1.048c1.348,3.34-2.2,5.64-4.613,7.259-3.1,2.087-6.735,3.885-9.158,6.812a7.006,7.006,0,0,0-1.8,4.477c.017,2.447,1.6,4.153,3.089,5.916,2.038,2.418,1.261,4.39-.935,6.287-2.075,1.792-4.522,3.11-6.67,4.812-5.7,4.516-6.4,12.038-7.033,18.8-.755,8.053-.879,16.363-3.951,23.967a26.349,26.349,0,0,1-5.5,8.67c-2.54,2.575-5.561,3.8-8.731,5.379a11.267,11.267,0,0,0-6.089,6.548c-1.2,3.483-1.365,6.853-3.493,10-2.3,3.4-4.741,6.34-5.809,10.4-1.05,3.99-1.075,8.16-1.244,12.254-.148,3.549-.349,7.212-1.675,10.553a14.25,14.25,0,0,1-7.31,7.509c-1.73.856-.212,3.445,1.514,2.59,5.748-2.846,8.951-7.857,9.911-14.112,1.118-7.276-.419-15.506,3.359-22.157,1.8-3.176,4.509-5.759,5.821-9.222,1.277-3.373.974-7.7,3.947-10.2,2.619-2.2,6.226-2.93,9-4.938a24.993,24.993,0,0,0,6.531-7.116c3.958-6.362,5.259-13.809,5.957-21.152.438-4.594.646-9.217,1.314-13.787.52-3.557,1.267-7.482,3.773-10.226,3.359-3.675,10.205-5.47,11.472-10.8.675-2.839-1.032-4.965-2.758-6.982-1.285-1.5-2.018-3.088-.9-4.873,3.486-5.55,18.414-8.675,14.868-17.462a1.523,1.523,0,0,0-1.845-1.048c-13.993,5.358-28.087,10.509-41.982,16.113-10.541,4.251-21.4,9.7-27.2,19.988l2.795.757c-1.513-16.04,14.711-25.169,26.066-32.734a63.419,63.419,0,0,0,8.949-6.729c2-1.925,4.011-4.965,2.836-7.825a5.487,5.487,0,0,0-3.091-2.852c-1.414-.632-3.024-1.095-3.519-2.743-.806-2.686,1.308-5.883,3-7.771,4.095-4.572,13.086-9.1,9.946-16.675l-2.507,1.46c3.144,3.985,8.276,1.465,11.162-1.463,3.628-3.679,4.4-9.842,8.974-12.643a3.335,3.335,0,0,1,5.142,1.7c.617,1.936.1,4.257-.171,6.21-.573,4.1-1.215,8.9,2.145,12.045a13.63,13.63,0,0,0,6.828,2.965,44.489,44.489,0,0,0,9.4,1.073c5.278-.119,10.631-2.62,12.221-8.032,1.554-5.289-2.343-8.336-6.246-10.947-2.588-1.731-3.959-3.551-3.727-6.812a49.091,49.091,0,0,1,1.664-9.168c.892-3.294,2.328-6.59,5.01-8.817,2.458-2.04,5.979-3.237,9.036-1.876,2.625,1.169,4.682,3.584,7.789,3.308,2.38-.211,4.57-1.86,4.5-4.4a1.508,1.508,0,0,0-.743-1.3,9.863,9.863,0,0,1-4.409-11.746c1.693-5.03,7.977-6.037,9.875-11.054,1.062-2.808.691-6.06,2.074-8.754a6.669,6.669,0,0,1,4.9-3.447c4.7-.883,9.906,1.067,14.056,3.112l-.538-2.053-3.863,8.912a1.53,1.53,0,0,0,.9,2.2c13.21,4.247,20.4-13.626,31.462-16.864,4.077-1.193,7.6.751,11.606,1.286,1.8.241,4.1.185,5.556-1.078,1.1-.948.844-2.595.4-3.858-1.9-5.415-9.294-6.224-13.348-9.355-3.06-2.362-2.818-5.973.406-8.232,4.229-2.963,10.189-1.645,14.984-2.929,7.588-2.032,13.044-8.046,17.841-13.908,2.534-3.095,4.983-6.267,7.712-9.2a47.868,47.868,0,0,1,4.058-3.911c1.8-1.52,3.971-2.666,5.584-4.394,2.915-3.123,2.245-6.932,1.442-10.743-.712-3.379-.689-6.921,3.443-7.487,3.357-.459,6.824.575,10.156.863,2.672.231,5.887.078,7.509-2.411,1.284-1.97.811-3.992.758-6.2a5.376,5.376,0,0,1,3.845-5.274c4.9-1.619,8.131,4.883,4.92,8.4a1.561,1.561,0,0,0-.235,1.818c4.039,8.167-.861,17.725-3.867,25.4-3,7.654-6.082,16.653-1.05,24.165a1.526,1.526,0,0,0,2.591,0,73.476,73.476,0,0,0,13.282-29.981c.846-4.416,1.1-8.926,2.513-13.222,1.136-3.443,3.163-7.193,7.261-7.133l-1.5-1.5.37,17.762.161,7.723c.024,1.159-.138,2.047.775,2.84a6.72,6.72,0,0,0,2.474,1.176,9.533,9.533,0,0,0,9.3-2.546c3.1-3.322,2.514-8.089,1.852-12.2-1.354-8.4-4.893-20.837,2.751-27.335,5.218-4.436,15.243-4.771,15.256,4.182.007,4.546-2.366,8.915-2.019,13.465a12.161,12.161,0,0,0,4.717,8.651c2.516,1.851,5.784,1.923,7.981-.485,2.565-2.812,1.433-6.684.4-9.889-1.242-3.853-2.522-7.94,1.114-10.932,3.919-3.226,9.132-2.359,13.514-.681,5.263,2.015,10.308,4.773,15.39,7.2l15.458,7.386a61.321,61.321,0,0,1,7.569,3.722c2.939,1.95,2.114,4.991.482,7.581a37.627,37.627,0,0,1-10.987,10.634,45.112,45.112,0,0,1-28.762,7.448c-1.674-.143-2.056,2.618-.4,2.946l21.432,4.244c6.864,1.359,13.822,2.491,20.625,4.132,4.635,1.118,10.791,3.892,9.436,9.76-.686,2.975-3.172,3.151-5.807,3.042-2.348-.1-4.674.165-6.381,1.945-3.023,3.152-1.922,8.051-3.576,11.787-1.127,2.548-3.828,3.108-6.011,4.449a8.063,8.063,0,0,0-2.823,2.833c-3.032,5.127-3.074,12.1-3.795,17.845-.318,2.534-.51,5.524-1.691,7.785-.282.541-.1.359-.3.181a14.462,14.462,0,0,1-2.741-3.357c-1.03-1.627-3.627-.124-2.591,1.514Z"/><path class="cls-1" d="M213.983,366.68c-3.282,2.751-3.412,7.227-3.056,11.169.177,1.962.492,3.919.544,5.891a15.862,15.862,0,0,1-1.82,6.941,32.111,32.111,0,0,0-2.557,7.956,60.112,60.112,0,0,0-.659,8.707c-.05,2.812.013,5.649-.253,8.452-.2,2.1-.835,4.3-3.074,4.941-4.027,1.154-9.282-1.2-12.335,2.67a1.528,1.528,0,0,0,0,2.122c1.44,1.255,3.243,1.539,4.8,2.554.416.272,1.183.9,1.146,1.467-.048.735-1.06.817-1.64.924a45.652,45.652,0,0,1-13.549.255c-3.8-.452-8.092-.654-10.478,2.951-2.077,3.14-.127,6.573,3.045,7.844a15.05,15.05,0,0,0,4.9.827c1.693.09,3.752.139,4.972,1.5,2.436,2.729.3,6.73-1.711,8.947-2.642,2.909-5.691,5.442-8.373,8.323a114.082,114.082,0,0,0-7.678,9.195,110.979,110.979,0,0,0-13.432,23.343,1.553,1.553,0,0,0,.538,2.052,1.509,1.509,0,0,0,2.052-.538,111.034,111.034,0,0,1,12.182-21.644,107.119,107.119,0,0,1,7.887-9.667c2.765-3.016,5.878-5.672,8.673-8.648,2.5-2.659,4.346-5.949,3.764-9.705-.61-3.943-3.816-5.741-7.519-6.073-1.856-.167-9.109-.345-6.8-4.1,1.11-1.808,3.381-2,5.295-1.893,2.244.13,4.458.521,6.708.61a48.281,48.281,0,0,0,7.873-.333c1.936-.239,4.417-.347,5.658-2.1,1.175-1.66.538-3.769-.77-5.15-1.5-1.586-3.816-1.676-5.412-3.067v2.122c1.167-1.478,2.953-1.533,4.708-1.527a23.494,23.494,0,0,0,6.161-.335c5.249-1.395,5.483-7.045,5.6-11.55.145-5.762-.179-11.705,1.766-17.229.92-2.613,2.4-5.026,3.02-7.747a18.077,18.077,0,0,0,.138-5.926c-.409-3.969-1.7-9.465,1.82-12.414,1.482-1.242-.65-3.354-2.121-2.121Z"/><path class="cls-1" d="M152.748,492.983c-1.907,3.891-3.276,8.048-5.027,12.011-1.712,3.875-3.592,9.271-7.818,11.017a12.185,12.185,0,0,1-9.558-.2c-3.075-1.423-5-4.477-8.135-5.8-4.557-1.93-9.659.606-12.372,4.393a10.02,10.02,0,0,0-1.964,6.747c.338,3.327,3.4,5.575,3.543,8.872.29,6.488-6.434,11.112-11.648,13.375-10.542,4.575-24.215,4.619-31.9,14.339-2.126,2.687-2.889,5.578-3.724,8.833-.876,3.419-3.023,4.881-6.282,5.765-4.779,1.3-10.815,1.432-13.5,6.316a1.536,1.536,0,0,0,.235,1.818c2.621,2.566,6.78,6.712,4.237,10.681-2.288,3.57-6.933-.348-9.5-1.511a8.707,8.707,0,0,0-8.938.592c-2.913,1.967-5.074,5.065-8.65,5.871-1.976.446-3.988.514-5.753,1.627a10.1,10.1,0,0,0-3.547,4.392,68.634,68.634,0,0,0-4.164,12.419,34.1,34.1,0,0,0-1.007,13.1c.695,4.732,4.154,8.928,3.527,13.794-.608,4.71-3.184,9.158-4.735,13.607a107.576,107.576,0,0,0-3.759,13.607A110,110,0,0,0,.154,696.794a83.492,83.492,0,0,0,1.619,13.568c.812,3.658,2.5,6.985,5.9,8.835,3.448,1.878,8.161,1.931,10.729,5.209,1.232,1.573,1.492,3.624-.332,4.834-1.418.941-3.337,1.1-4.961,1.465-3.714.831-6.524,2.618-8.122,6.18-1.894,4.222-2.168,9.258-2.489,13.809A98.979,98.979,0,0,0,5.855,783.85a1.513,1.513,0,0,0,2.2.9c5.2-3.553,9.419-10.473,16.264-10.789a5.7,5.7,0,0,1,6.184,4.566c.48,2.642-.554,5.449-1.914,7.675-3.1,5.07-9.05,7.572-13.04,11.832a16.65,16.65,0,0,0-4.3,14.927c2.549,13.132,15.079,19.275,25.583,25.258a50.308,50.308,0,0,1,8.61,5.674c1.41,1.25,1.163,2.267.506,3.87a7.016,7.016,0,0,0-.747,3.752c.4,2.633,2.845,4.032,5.175,4.773a78.873,78.873,0,0,0,10.04,2.146c7.083,1.258,14.4,1.925,21.489.328,6.745-1.52,12.689-5.222,18.2-9.265a175.522,175.522,0,0,0,29.918-27.853q3.273-3.853,6.323-7.889c2.036-2.689,3.828-5.646,6.093-8.149,2.464-2.721,5.485-3.561,8.886-4.568a26.548,26.548,0,0,0,8.313-4.088,45.688,45.688,0,0,0,6.823-6.35c1.912-2.133,4.2-4.4,5.533-6.959a10.053,10.053,0,0,0,.334-7.827c-.881-2.735-2.737-5.088-3.489-7.859-.408-1.5.066-2.623.3-4.086.107-.682.308-2.956,1.087-3.321.616-.287,1.971,2.079,2.308,2.745,1.258,2.489,1.67,5.353,2.607,7.969.962,2.683,1.341,5.57,2.487,8.173,3.786,8.6,14.067,11.424,20.888,16.929a21.273,21.273,0,0,1,4.757,5.214,1.517,1.517,0,0,0,2.59,0,41.342,41.342,0,0,0,5.98-18.741,40.84,40.84,0,0,0-.541-9.9c-.616-3.514-2.6-7.25-2.242-10.851.316-3.171,3.325-5.013,4.746-7.652a8.03,8.03,0,0,0,.965-3.657c.058-2.01-.458-3.92,1.474-5.211,2.232-1.493,4.926-2.043,7.135-3.641a20.624,20.624,0,0,0,5.15-5.444c6.571-10.022,4.928-22.635,1.6-33.441-2.161-7.009-4.908-13.879-6.185-21.13a15.773,15.773,0,0,1-.391-5.6c.394-1.976,1.953-2.714,3.647-3.43a17.23,17.23,0,0,0,6.037-3.9c6.4-6.712,7.035-18.891.038-25.434-2.539-2.374-5.791-3.786-8.384-6.08A17.518,17.518,0,0,1,220.1,630.4c-2.064-5.578-1.909-11.819-1-17.615,1.065-6.744,3.827-13.229,2.27-20.127-.807-3.575-2.328-6.944-3.268-10.483a69.481,69.481,0,0,1-1.935-11.607c-.714-7.888-.949-15.857-1.167-23.772a182.718,182.718,0,0,1,.595-23.781c1.379-13.364,6.651-28.664,20.616-33.436a21.087,21.087,0,0,1,9.7-.9c3.319.432,6.715,1.25,10.043.43,5.074-1.25,6.7-5.881,7.24-10.577a86.053,86.053,0,0,0,.348-9.794,1.5,1.5,0,0,0-3,0,81.044,81.044,0,0,1-.348,9.794c-.267,2.178-.724,4.852-2.439,6.4-2.521,2.282-6.554,1.516-9.583,1.062a28.654,28.654,0,0,0-9.385-.185c-13.192,2.311-21.437,14.6-24.452,26.77-3.655,14.755-2.58,30.61-1.891,45.645.348,7.574.588,15.231,2.255,22.657.79,3.52,2.112,6.843,3.16,10.283a22.1,22.1,0,0,1,.3,11.837c-2.467,10.9-5.332,24,2.036,33.762a24.746,24.746,0,0,0,6.557,5.722c2.567,1.666,5.091,3.3,6.66,6a16,16,0,0,1,.63,13.782,14.292,14.292,0,0,1-4.219,5.78c-2.128,1.7-4.985,2.092-7.045,3.846-2.377,2.025-2.5,5.141-2.138,8.026a66.1,66.1,0,0,0,2.264,10.444c3.592,12.254,9.627,24.664,6.085,37.662-1.412,5.178-4.338,10.028-9.2,12.592-2.325,1.226-5.151,1.77-6.857,3.932-2.1,2.658-.289,6.049-1.97,8.8-1.481,2.422-3.845,4.136-4.618,6.99-.912,3.363.428,6.762,1.3,9.973a37.849,37.849,0,0,1-4.37,29.739h2.59c-5.291-8.441-15.409-10.749-22.275-17.386a13.708,13.708,0,0,1-3.668-5.6c-.428-1.337-.61-2.736-1.02-4.08-.522-1.712-1.216-3.365-1.732-5.078-1-3.314-2.025-9.225-6.086-10.313a3.38,3.38,0,0,0-3.819,2,10.177,10.177,0,0,0-.952,3.039,16.768,16.768,0,0,0-.665,4.43c.487,5.842,7.183,10.869,2.71,16.656-3.906,5.054-8.514,10.366-14.379,13.15-2.969,1.409-6.3,1.789-9.261,3.22-2.862,1.385-4.883,3.8-6.719,6.321A189.041,189.041,0,0,1,109.8,837.9,130.952,130.952,0,0,1,93.07,850.687a37.707,37.707,0,0,1-21.472,6,73.038,73.038,0,0,1-11.453-1.351c-3.237-.606-7.07-.949-10.076-2.368-1.613-.761-2.213-1.814-1.58-3.546a10.521,10.521,0,0,0,1.125-3.966c-.1-2.832-3.069-4.589-5.13-6.027-10.536-7.354-25.529-11.548-29.789-25.127-2-6.361.123-11.861,5.053-16.125,4.388-3.8,9.737-6.621,12.3-12.085,2.054-4.369,2.483-10.16-1.786-13.378-5-3.77-11.613-.944-15.842,2.584-2.678,2.233-4.99,4.877-7.88,6.854l2.2.9A96.518,96.518,0,0,1,5.364,752.9c.216-4.547.407-9.533,1.97-13.858a7.944,7.944,0,0,1,3.088-4.242,15.451,15.451,0,0,1,4.917-1.5c3.022-.657,6.232-1.849,6.974-5.231.747-3.408-1.944-6.586-4.693-8.188-3.67-2.139-8.782-1.978-11.292-5.851-2.273-3.509-2.44-8.627-2.831-12.652a106.7,106.7,0,0,1,4.674-43.191c1.47-4.555,3.68-8.888,4.988-13.484a15.9,15.9,0,0,0,.626-6.416,22.172,22.172,0,0,0-2.048-5.909C9.66,627.589,9.668,622.44,10.7,617.4a73.157,73.157,0,0,1,4.033-13.076c.816-1.97,1.911-3.9,4.054-4.6,2.078-.677,4.258-.612,6.256-1.6,3.313-1.644,5.762-5.945,9.553-6.483,3.9-.552,7.082,3.516,10.891,3.931,3.73.406,6.5-2.429,6.978-5.979.619-4.634-2.69-8.238-5.756-11.24l.235,1.817c2.294-4.17,8.533-3.926,12.54-5.177a11.336,11.336,0,0,0,5.616-3.44c2.1-2.6,1.97-6.027,3.28-8.975,2.441-5.5,8.268-8.58,13.652-10.533,5.608-2.034,11.532-3.015,17.105-5.168,5.273-2.037,10.44-5.042,13.344-10.078,1.617-2.8,2.554-6.263,1.467-9.426-.955-2.781-3.552-4.806-3.062-7.981.8-5.169,7.169-8.986,11.675-5.738,2.715,1.958,4.693,4.326,7.967,5.445a15.236,15.236,0,0,0,9.075.186c5.377-1.572,7.7-6.252,9.908-11.009,2.1-4.517,3.634-9.3,5.825-13.773.847-1.727-1.74-3.249-2.591-1.514Z"/><path class="cls-1" d="M263.544,468.74c-.015-3,.014-6,0-9a1.514,1.514,0,0,0-1.1-1.446c-4.565-.7-12.112-2.311-13.169-7.77-.695-3.591,2.028-6.748,3.851-9.551q2.972-4.571,5.487-9.418a117.332,117.332,0,0,0,12.4-40.974,112.727,112.727,0,0,0,.329-21.771c-.272-3.288-1.171-7-.241-10.245,1.018-3.555,4.342-4.685,7.62-5.388,4.906-1.052,12.137-2.439,12.966-8.579.422-3.12-1.736-4.955-3.072-7.471-1.98-3.728,1.178-7.863,3.026-10.994l12.989-22.007c3.3-5.586,8.283-12.473,6.535-19.365-.811-3.2-3.136-5.317-5.63-7.286-2.148-1.7-5.6-4.39-4.626-7.62.545-1.815,2.62-1.906,4.149-2.389a6.909,6.909,0,0,0,3.386-2.113c1.719-2.077,1.832-5.007,1.73-7.576-.281-7.09-.325-15.024,4.587-20.748a14.746,14.746,0,0,1,8.3-5.029c3.81-.706,6.755,1.4,10.378,1.95,5.248.8,8.67-3.293,9.562-8.067,1.058-5.657-1.045-10.583-1.925-16.07-.443-2.757-.676-6.082.98-8.509,2.048-3,5.868-3.144,9.143-2.774,8.077.912,16.136,2.822,24.14,4.236,2.649.468,5.773.969,7.6-1.522,1.893-2.58,2.418-6.693,2.9-9.775a54.451,54.451,0,0,0-.939-21.37,57.718,57.718,0,0,0-3.555-10.116l-.9,2.2a49.142,49.142,0,0,1,17.6-2.947,1.5,1.5,0,0,0,1.3-.743,12.1,12.1,0,0,0,.189-11.9v1.514c3.833-5.2,11.183-1.946,14.732,1.668,4.281,4.358,7.249,9.941,11.009,14.736,6.467,8.247,15.679,15.093,26.708,12.608a14.832,14.832,0,0,0,10.451-8.157c1.131-2.459,1.939-5.867,4.948-6.614,2.773-.689,5.745,1.216,7.885,2.76,4.233,3.053,7.482,7.021,12.908,8,4.391.793,8.66-1.393,9.078-6.188.254-2.9-1-5.625-1.3-8.467-.332-3.151,1.359-5.428,3.273-7.737a22.774,22.774,0,0,0,4.391-7.039,21.791,21.791,0,0,0,.922-8.577c-.443-6.378-2.548-12.5-3.124-18.853a54.355,54.355,0,0,1,1.647-19,53.2,53.2,0,0,1,3.275-8.974,33.427,33.427,0,0,1,4.706-7.972c2.272-2.529,5.416.388,8.233.271a8.415,8.415,0,0,0,4.925-2.119c2.911-2.376,5.291-7.185,9.248-7.919,2.789-.518,5.2,1.685,7.2,3.294a25.709,25.709,0,0,0,6.339,3.94c7.687,3.181,21.554,2.329,24.188,12.287,1.2,4.557-.464,9.457-1.765,13.807-1.316,4.4-2.893,9.059-2.472,13.719a14.409,14.409,0,0,0,1.889,6.016,1.5,1.5,0,0,0,2.59-1.514c-2.475-4.271-1.459-9.2-.209-13.7,1.311-4.721,3.133-9.422,3.336-14.37a13.976,13.976,0,0,0-5.1-11.767c-3.833-3.029-8.824-3.96-13.474-5a53.5,53.5,0,0,1-7.289-2.012,25.342,25.342,0,0,1-6.819-4.26c-3.787-3.014-8.139-4.926-12.494-1.8a29.767,29.767,0,0,0-4.522,4.421c-1.3,1.43-2.74,3.186-4.645,3.793-2.651.843-5.062-1.544-7.76-1.2-2.765.357-4.312,2.873-5.669,5.04a56.965,56.965,0,0,0-8.18,36.667c.776,6.4,3.015,12.665,3.023,19.153a15.667,15.667,0,0,1-2.576,9.09c-1.581,2.3-3.719,4.214-5,6.721a11.6,11.6,0,0,0-.707,8c.547,2.6,2.04,6.267-.251,8.451-1.726,1.647-4.552.988-6.529.225a21.973,21.973,0,0,1-6.6-4.476c-3.6-3.193-8.971-7.266-14.087-5.363-5.436,2.021-5.165,9-9.507,12.255-3.974,2.98-9.569,3.248-14.21,1.952-5.754-1.607-10.27-5.99-13.946-10.51-6.357-7.816-12.957-23.572-25.575-20.6a9.665,9.665,0,0,0-5.678,3.8,1.483,1.483,0,0,0,0,1.514,8.989,8.989,0,0,1-.189,8.874l1.3-.743a51.556,51.556,0,0,0-18.4,3.054,1.532,1.532,0,0,0-.9,2.2,52.683,52.683,0,0,1,4.74,22.366,47.507,47.507,0,0,1-1.449,11.184c-.378,1.481-.744,4.318-2.307,4.98-1.638.693-4.246-.268-5.9-.563l-12.262-2.185c-3.643-.649-7.311-1.49-11-1.812-5.944-.52-11.586,2.039-12.6,8.39-.944,5.917,1.989,11.216,2.337,16.983a13.749,13.749,0,0,1-1.4,7.71c-1.674,2.859-4.489,2.784-7.349,1.793-3.154-1.092-5.945-1.9-9.3-1.236a17.213,17.213,0,0,0-7.938,4.1c-5.21,4.611-7.051,11.692-7.288,18.414-.112,3.185.637,6.641-.03,9.775-.835,3.921-4.791,2.856-7.3,5.007-2.018,1.728-2.252,4.547-1.439,6.946,1,2.96,3.277,4.754,5.638,6.632,3,2.386,5.076,5.046,4.488,9.089-.551,3.79-2.612,7.209-4.524,10.449q-6.5,11-12.989,22.007c-1.958,3.319-4.462,6.707-5.516,10.46-.925,3.29.047,5.851,1.933,8.532.883,1.256,1.811,2.622,1.317,4.223a6.375,6.375,0,0,1-2.963,3.254c-2.7,1.638-5.873,1.8-8.874,2.554-2.851.715-5.612,1.945-7.313,4.452-1.769,2.608-1.842,5.912-1.591,8.944a143.093,143.093,0,0,1,.573,21.888,113.426,113.426,0,0,1-11.644,42.692q-2.437,4.876-5.342,9.5c-1.842,2.931-4.331,5.829-5.064,9.295-1.159,5.473,2.613,9.6,7.321,11.678a31.319,31.319,0,0,0,7.937,2.191l-1.1-1.447c.014,3-.015,6,0,9a1.5,1.5,0,0,0,3,0Z"/></g><g id="Warstwa_3" data-name="Warstwa 3"><path class="cls-1" d="M399.339,158.5a12.784,12.784,0,0,0-.346-12.41V147.6a7.307,7.307,0,0,1,6.41-2.635,11.91,11.91,0,0,1,7.357,3.37c4.432,4.011,7.342,9.567,10.92,14.3s7.725,9.351,13.094,12.081a22.136,22.136,0,0,0,14.377,1.961,14.951,14.951,0,0,0,10.994-8.8c1-2.308,1.877-5.3,4.62-6.017,2.577-.677,5.316.926,7.362,2.317,2.334,1.586,4.218,3.694,6.512,5.321a17.967,17.967,0,0,0,6.813,3.068,8.4,8.4,0,0,0,6.212-.846,7.287,7.287,0,0,0,3.07-6.6c-.162-2.905-1.539-5.689-1.38-8.612.153-2.83,2.3-5.027,3.994-7.1a19.4,19.4,0,0,0,4.067-7.366,24.791,24.791,0,0,0,.419-9.177c-.739-6.346-2.721-12.47-3.093-18.868a54.523,54.523,0,0,1,2.219-18.811,52.866,52.866,0,0,1,3.582-8.94q1.049-2.046,2.267-4c.7-1.125,1.455-2.61,2.634-3.31,1.264-.751,2.739.068,3.975.513a8.279,8.279,0,0,0,3.791.567,9.483,9.483,0,0,0,5.287-2.805c1.546-1.448,2.845-3.134,4.347-4.626a7.8,7.8,0,0,1,4.481-2.624c2.738-.267,5.063,1.975,7.03,3.557a25.086,25.086,0,0,0,6.608,3.951c4.527,1.787,9.414,2.32,14.056,3.718,4.315,1.3,8.358,3.682,9.6,8.306,1.176,4.375-.325,9.077-1.574,13.265-1.348,4.523-3.024,9.281-2.669,14.073a14.24,14.24,0,0,0,1.909,6.255,1.5,1.5,0,0,0,2.59-1.515c-2.436-4.131-1.5-8.98-.3-13.356,1.282-4.695,3.082-9.33,3.406-14.229a14.081,14.081,0,0,0-5.05-12.233c-3.807-3.008-8.739-3.959-13.361-4.99a55.012,55.012,0,0,1-7.36-2.016,23.793,23.793,0,0,1-6.6-4.054c-2.132-1.719-4.4-3.471-7.233-3.716a8.638,8.638,0,0,0-6.045,2.063,38.154,38.154,0,0,0-4.438,4.5c-1.218,1.327-2.59,2.871-4.383,3.384-2.55.73-4.855-1.5-7.44-1.272-3.121.275-4.838,3.4-6.286,5.8a57.165,57.165,0,0,0-7.554,37.316c.9,6.311,3.123,12.544,2.816,18.984a15.081,15.081,0,0,1-2.9,8.381c-1.667,2.257-3.774,4.223-4.93,6.823-1.274,2.863-.832,5.72-.134,8.672.559,2.362,1.494,5.645-.811,7.428-1.632,1.263-4.049.745-5.825.134a17.919,17.919,0,0,1-6.227-3.9c-3.743-3.452-9.554-8.225-15.028-6.05-2.745,1.09-4.127,3.54-5.217,6.132-.976,2.323-2.022,4.449-4.075,6.014-3.913,2.981-9.427,3.308-14.041,2.083-5.557-1.476-9.976-5.535-13.589-9.839-3.95-4.706-6.964-10.113-10.911-14.813-3.669-4.368-8.756-7.686-14.675-6.654a9.631,9.631,0,0,0-6.278,3.927,1.485,1.485,0,0,0,0,1.515,9.714,9.714,0,0,1,.346,9.381,1.5,1.5,0,0,0,2.591,1.514Z"/><path class="cls-1" d="M396.6,158.139c.783,4.462,2.326,8.77,3.246,13.2a2.416,2.416,0,0,0,.512,1.318,10.6,10.6,0,0,0,2.745,1.466l5.548,2.8,11.317,5.711c6.736,3.4,13.541,6.693,20.17,10.3a85.812,85.812,0,0,1,16.105,10.79A39.794,39.794,0,0,1,467.363,219.3c1.416,3.738,2.468,7.62,3.625,11.444l3.6,11.893,7.328,24.23c2.4,7.936,4.926,15.847,7.155,23.833a83.286,83.286,0,0,1,2.605,12.113c.466,3.756.583,7.547,1.087,11.3a29.627,29.627,0,0,0,3.193,10.5c1.705,3.087,4.021,5.772,6.035,8.653a31.679,31.679,0,0,1,2.633,4.428c.835,1.74,3.423.22,2.591-1.514-2.771-5.774-7.962-10.125-10.086-16.239-2.216-6.374-1.774-13.326-2.849-19.921-1.2-7.359-3.582-14.481-5.735-21.6L482,256.808l-6.5-21.5q-1.617-5.347-3.234-10.693a67.583,67.583,0,0,0-3.492-9.6c-4.983-10.434-14.641-17.582-24.437-23.171-6.3-3.592-12.842-6.743-19.31-10.007l-22.856-11.533.689.9c-.821-4.683-2.551-9.176-3.372-13.86-.333-1.9-3.224-1.093-2.893.8Z"/><path class="cls-1" d="M504.748,337.5c2.385,3.669,4.08,9.085,8.467,10.8,4.783,1.868,9.808,3.035,14.61,4.854,4.378,1.658,8.89,4.009,11.283,8.223,1.586,2.795,1.839,6,2.408,9.1a36.784,36.784,0,0,0,2.855,8.429c2.316,5.151,6.588,11.906,2.746,17.31l2.052-.538c-3.7-2.347-8.3-1.75-11.924.461-4.344,2.652-6.617,7.263-8,12-1.562,5.358-2.508,10.836-4.34,16.127a89.612,89.612,0,0,1-7.325,15.9q-2.136,3.657-4.607,7.105c-1.579,2.2-3.5,4.241-4.825,6.612a9.987,9.987,0,0,0-1.081,6.842c.205,1.37.467,2.813-1.056,3.415a12.722,12.722,0,0,1-3.425.411c-9.038.87-9.728,10.782-11.372,17.826-2.342,10.031-12.3,18.762-9.633,29.695l1.845-1.845c-6.974-1.037-12.958,3.578-16.045,9.543a50,50,0,0,0-3.7,10.736,111.455,111.455,0,0,0-2.373,11.017c-1.039,6.944-1,14.345,2.635,20.584,1.671,2.869,4.048,5.22,6.125,7.784a14.9,14.9,0,0,1,3.721,10.215c-.062,3.771-.636,7.568.794,11.177,1.233,3.114,3.477,5.61,5.554,8.181a22.43,22.43,0,0,1,4.816,9.85,40.58,40.58,0,0,1,.312,11.257c-.629,7.694-1.845,15.226-1.5,22.979a87.177,87.177,0,0,0,4.282,23.382,73.953,73.953,0,0,0,5.034,12.1c.818,1.5,1.952,2.773,3.807,2.74,1.883-.035,3.5-1.355,5.141-2.111,3.787-1.746,8.851-2.556,12.485-.009,2.836,1.988,4.608,5.971,2.891,9.219-.555,1.05.391,2.7,1.694,2.2,3.518-1.352,4.291,5.533,5.347,7.552,1.5,2.862,4.434,3.9,7.515,3.842,3.37-.066,6.585-.954,9.9.1a13.058,13.058,0,0,1,7.718,6.663,1.5,1.5,0,0,0,2.052.538,76.463,76.463,0,0,1,24.337-12.6c4.134-1.254,8.622-1.661,12.62-3.3,4.044-1.663,5.721-5.084,8.429-8.227,2.888-3.35,6.692-5.68,10.5-7.848,4.412-2.514,8.859-4.971,13.289-7.455l26.827-15.041c4.212-2.361,8.418-4.745,12.77-6.843,2.2-1.063,4.443-2.051,6.735-2.908,2.055-.768,4.2-1.335,6.187-2.275,3.977-1.882,5.735-5.941,7.787-9.582q3.636-6.451,7.161-12.964,13.932-25.738,26.11-52.377,12.1-26.475,22.431-53.714,2.625-6.924,5.131-13.893a101.832,101.832,0,0,0,4.306-13.824c1.741-8.466.373-16.7-4.838-23.681-5.1-6.839-12.374-11.4-20.125-14.712-4.1-1.752-8.312-3.206-12.528-4.645-3.929-1.341-7.886-2.563-11.415-4.81-2.783-1.773-5.924-4.49-6.057-8.053-.149-3.975,3.664-6.79,5.359-10.057a21.645,21.645,0,0,0-.086-19.375,20.229,20.229,0,0,0-6.659-7.543c-2.819-1.97-5.986-3.452-8.672-5.613a10.734,10.734,0,0,1-2.923-3.309c-1.023-1.977-.651-3.969-.375-6.089a8.79,8.79,0,0,0-3.383-8.663c-2.75-2.14-6.079-2.921-9.194-4.326a13.618,13.618,0,0,1-4.545-3.139,4.69,4.69,0,0,1-.7-5.7c.674-1.441,1.742-2.759,2.086-4.334a8.52,8.52,0,0,0-.234-3.939,37.693,37.693,0,0,0-4.086-8.668c-1.628-2.866-3.428-5.742-4.386-8.919-.556-1.843-3.452-1.058-2.893.8,1.891,6.269,6.8,11.269,8.472,17.586.923,3.485-2.122,5.731-2.617,9.063-.5,3.37,1.764,6.173,4.326,8.046,2.925,2.137,6.445,2.853,9.628,4.471a9.92,9.92,0,0,1,3.826,2.963c1.287,1.868.771,4.019.5,6.109-.952,7.412,5.266,11.044,10.776,14.4,2.909,1.773,5.618,3.653,7.48,6.578a18.943,18.943,0,0,1,2.917,10.177,17.231,17.231,0,0,1-2.875,9.628c-2.091,3.109-4.854,5.819-4.742,9.85.189,6.862,7.469,11.179,13.083,13.435,8.6,3.455,17.62,5.595,25.717,10.268,6.876,3.968,13.254,9.9,15.809,17.613,3.08,9.3-.7,18.868-3.845,27.612q-9.838,27.358-21.5,54.015-11.593,26.489-24.932,52.168-6.746,12.985-13.926,25.74c-1.036,1.839-2.015,3.742-3.163,5.515a9.918,9.918,0,0,1-5.538,4,106.886,106.886,0,0,0-12.683,5.253c-8.864,4.441-17.415,9.556-26.06,14.4-8.783,4.923-17.648,9.725-26.349,14.792a39.28,39.28,0,0,0-9.8,7.447c-1.37,1.538-2.416,3.316-3.73,4.894a11.045,11.045,0,0,1-5.823,3.562c-4.068,1.134-8.213,1.8-12.237,3.131a77.972,77.972,0,0,0-23.195,12.307l2.052.538a15.865,15.865,0,0,0-7.6-7.3c-3.619-1.645-7.075-1.4-10.923-1.048-1.807.163-3.979.372-5.493-.834-1.547-1.231-1.815-3.443-2.395-5.215-1-3.062-3.869-6.514-7.461-5.134l1.694,2.2c2.675-5.061-.069-11.453-5.029-13.952a14.861,14.861,0,0,0-9.675-.991,21.76,21.76,0,0,0-4.777,1.628c-.743.346-1.437.782-2.17,1.143a3.886,3.886,0,0,1-1.3.534c-.943-.021-1.346-1.167-1.676-1.827a84.1,84.1,0,0,1-8.229-45.976c.724-7.146,2.053-14.367.865-21.539a23.106,23.106,0,0,0-3.6-9.215c-1.892-2.781-4.356-5.147-6.077-8.046-2.128-3.583-1.7-7.366-1.566-11.354a17.068,17.068,0,0,0-2.259-9.829c-1.664-2.721-3.948-4.981-5.94-7.451a21.239,21.239,0,0,1-4.383-9.223c-1.643-8.122.722-16.723,2.792-24.549,1.9-7.185,6.251-18.011,15.65-16.614a1.522,1.522,0,0,0,1.845-1.845c-1.14-4.675.745-9.1,2.9-13.175,2.1-3.971,4.533-7.81,5.957-12.1,1.264-3.8,1.621-7.842,2.773-11.677,1.053-3.508,2.786-6.429,6.728-6.8,1.8-.168,3.728-.1,5.324-1.09,1.886-1.17,2.252-3.3,1.986-5.343a13.437,13.437,0,0,1-.315-3.118,8.283,8.283,0,0,1,1.555-3.615c1.527-2.291,3.36-4.38,4.934-6.643a92.765,92.765,0,0,0,13.308-28.568c1.488-5.484,2.083-11.535,5.159-16.439,2.577-4.108,8.285-7.356,12.872-4.445a1.535,1.535,0,0,0,2.053-.538c3.341-4.7,1.731-10.223-.358-15.081-1.233-2.869-2.7-5.644-3.763-8.583-1.142-3.152-1.35-6.454-2.133-9.689-2.67-11.026-14.28-14.076-23.761-17.043-2.521-.789-5.808-1.316-7.537-3.459-1.935-2.4-3.145-5.319-4.817-7.892-1.049-1.613-3.647-.111-2.591,1.514Z"/><path class="cls-1" d="M568.6,123.139c.664,2.743,1.455,6.87-.769,9.134a1.513,1.513,0,0,0,.662,2.508c3.741.729,5.288,4.65,5.062,8.109-.285,4.349-3.1,7.99-3.489,12.277-.386,4.271,2.741,7.965,4.92,11.327,1.226,1.892,2.436,3.794,3.679,5.674a9.3,9.3,0,0,0,3.979,3.807c1.867.775,3.864.529,5.827.45a15.258,15.258,0,0,1,5.579.8c3.75,1.277,6.36,3.912,8.455,7.175a28.851,28.851,0,0,0,3.3,4.524,14.3,14.3,0,0,0,4.615,3.057,24.9,24.9,0,0,1,5.2,2.622,11.3,11.3,0,0,1,3.176,4.025c3.685,7.454.528,16.347-2.28,23.52-2.928,7.476-6.308,15.184-5.669,23.41A20.045,20.045,0,0,0,614.7,256.2c2.3,3.05,5.316,5.378,8.2,7.838,6.643,5.66,10.8,13.342,15.39,20.637l15.348,24.384c.6.959,1.221,1.912,1.811,2.88a4.683,4.683,0,0,1,.988,2.778c-.147,1.5-1.581,2.654-2.6,3.607-2.636,2.46-4.587,5.124-4.626,8.887a10.718,10.718,0,0,0,1.312,5.193c.912,1.7,3.5.189,2.59-1.514-1.779-3.319-.771-6.979,1.83-9.494,2.391-2.31,5.371-4.805,4.264-8.536-.616-2.075-2.1-3.926-3.241-5.736l-3.837-6.1-7.806-12.4-7.557-12.006a79.573,79.573,0,0,0-7.465-10.6c-5.094-5.752-12.907-9.365-14.935-17.341-2.037-8.017,1.285-16.276,4.209-23.618,3.016-7.571,6.234-15.894,4.2-24.146a15.467,15.467,0,0,0-5.631-8.895c-3.164-2.326-7.258-2.785-9.858-5.932-2.431-2.942-3.894-6.382-6.974-8.795a18.151,18.151,0,0,0-10.653-3.881c-1.884-.05-4.061.546-5.857-.195s-2.826-2.987-3.828-4.533l-3.867-5.967c-1.1-1.7-2.424-3.447-2.915-5.45-.529-2.163.381-4.3,1.183-6.271a29.175,29.175,0,0,0,1.941-6.166c.625-3.752.034-7.662-2.666-10.507a8.213,8.213,0,0,0-4.362-2.435l.662,2.507c3.069-3.126,2.479-8.171,1.54-12.054-.453-1.875-3.347-1.081-2.893.8Z"/><path class="cls-1" d="M455.769,689.048c-1.449-.457-2.647-1.485-4.179-1.721a4.09,4.09,0,0,0-3.648,1.05,3.713,3.713,0,0,0-.424,4.145c.4.892,2.484,2.928,1.969,3.921l.9-.69a4.7,4.7,0,0,1-3.748-.2,5.428,5.428,0,0,0-3.7-.745c-2.216.6-4.073,3.206-4.78,5.264a6.158,6.158,0,0,0,1.448,6.41,4.932,4.932,0,0,0,3,1.4c.514.042,2.284-.37,2.591-.078.24.229.383,1.238.57,1.56a5.079,5.079,0,0,0,4.243,2.508c2.422.042,4.634-2.008,6.371-3.474a14.488,14.488,0,0,0,2.436-2.586,8.9,8.9,0,0,0,.848-1.437c.237-.5.4-1.24.9-1.55a14.464,14.464,0,0,1,1.573-.512,4.524,4.524,0,0,0,1.2-.782,5.242,5.242,0,0,0,1.593-2.894c.887-4.738-4.626-7.425-8.127-9.193-1.72-.868-3.24,1.719-1.514,2.59a31.248,31.248,0,0,1,4.989,3.028c1.272.98,2.548,2.43,1.258,4.033-.623.774-1.806.74-2.626,1.225-1.118.66-1.44,1.8-2,2.877-1.114,2.148-3.338,3.83-5.35,5.1a2.193,2.193,0,0,1-2.636.2c-.941-.673-.777-1.992-1.572-2.811a3.482,3.482,0,0,0-2.822-.9c-1.025.061-1.964.36-2.806-.408-1.88-1.713-.556-4.376.919-5.831.39-.384.811-.86,1.395-.818a6.581,6.581,0,0,1,1.8.757,7.264,7.264,0,0,0,3.821.536c1.552-.2,2.719-.776,2.889-2.472a5.8,5.8,0,0,0-1.415-3.859c-.447-.625-1.919-2.486-.25-2.428,1.4.049,2.762,1.271,4.09,1.689,1.846.582,2.636-2.313.8-2.892Z"/></g><g id="Warstwa_4" data-name="Warstwa 4"><path class="cls-1" d="M312.544,1016.74c-.045,1.811-.937,3.6-.287,5.4.39,1.081,1.268,1.456,1.939,2.28a4.51,4.51,0,0,0,2.662,1.818,6.023,6.023,0,0,1,2.6,1.008,5.674,5.674,0,0,0,3.335,1.493,13.519,13.519,0,0,0,3.382-.514,5.563,5.563,0,0,0,3.147-1.573,8.039,8.039,0,0,0,.445-.688c.248-.361-.174-.012.238-.209a2.412,2.412,0,0,0,1.125-1.374,6.474,6.474,0,0,0,.016-3.567c-.14-.463-.473-.858-.609-1.309a8.735,8.735,0,0,1-.124-1.451,4.2,4.2,0,0,0-1.872-3.171,6.147,6.147,0,0,0-1.582-.622,3.58,3.58,0,0,1-1.258-.405c-.316-.248-.446-.686-.75-.973a4.816,4.816,0,0,0-1.6-.828,8.827,8.827,0,0,0-1.66-.5,18.328,18.328,0,0,1-1.867-.158c-.369-.111-.277-.181-.513-.577a2.869,2.869,0,0,0-1.664-1.182c-1.236-.432-2.667-.964-3.932-.362a2.943,2.943,0,0,0-1.566,2.952c.032,1.508.4,3,.392,4.513a1.5,1.5,0,0,0,3,0,35.948,35.948,0,0,0-.322-3.584c-.023-.252-.049-.5-.061-.758a2.779,2.779,0,0,0,0-.617l-.157.181c-.085.035-.07.048.047.04a2.964,2.964,0,0,0,.684.177,4.323,4.323,0,0,1,1.4.528l-.538-.538c.433.577.624,1.188,1.266,1.618a4.467,4.467,0,0,0,2.256.629,6.933,6.933,0,0,1,2.027.379,3.022,3.022,0,0,1,.8.319c-.185-.147.024.155.037.174a3.612,3.612,0,0,0,.451.573,4.477,4.477,0,0,0,1.762,1.028c.57.2,1.416.214,1.881.628a1.874,1.874,0,0,1,.4,1.368,5.612,5.612,0,0,0,.6,2.37,3.868,3.868,0,0,1,.257,1.8,1.612,1.612,0,0,0-.022.291c-.037-.124.375-.162.092-.124-.329.045-.805.619-.982.864-.3.42-.318.7-.816.9a11.924,11.924,0,0,1-2.283.564,3.591,3.591,0,0,1-1.939.094,8.371,8.371,0,0,1-1.6-1.137,5.6,5.6,0,0,0-1.819-.893,8.993,8.993,0,0,1-1.838-.423c-.306-.163-.412-.413-.618-.685a4.851,4.851,0,0,0-.923-.87,1.3,1.3,0,0,1-.557-1.371c0-.043.027-.251,0-.023.016-.122.041-.244.063-.364.057-.322.121-.643.179-.964a14.247,14.247,0,0,0,.277-2.176c.047-1.931-2.953-1.93-3,0Z"/><path class="cls-1" d="M158.287,874.445c-2.4,1.789-4.89,3.46-7.214,5.344a18.055,18.055,0,0,0-4.552,5.587c-1.4,2.589-2.588,5.258-4.172,7.747a46.063,46.063,0,0,1-5.5,7.059,12.8,12.8,0,0,1-3.232,2.646,10.25,10.25,0,0,1-4.457.988c-2.716.088-5.429-.167-8.149-.053a34.161,34.161,0,0,0-14.5,3.415,18.324,18.324,0,0,0-9,10.214A19.288,19.288,0,0,0,97.9,930.5a17.893,17.893,0,0,0,3.687,5.832c.684.711,1.636,1.838,2.709,1.73a3.277,3.277,0,0,0,2.479-2.15,5.253,5.253,0,0,0,.169-3.2c-.358-1.419-1.436-2.606-1.7-4.043-.455-2.49,2.226-5.135,3.651-6.921,3.216-4.035,8.078-9.334,13.86-8.315a4.876,4.876,0,0,1,3.092,1.666c1.048,1.395.663,3.26.167,4.783a105.569,105.569,0,0,1-4.279,9.872l2.741.358c-1.159-3.843-5.808-3.917-8.523-1.75-3.042,2.428-5.024,6.56-6.112,10.216-.695,2.34-1.482,7.915-5.236,6.083-2.305-1.124-3.48-4.077-4.991-6-1.673-2.135-4.2-3.694-6.99-2.8-3.043.977-4.474,4.312-4.868,7.237-.522,3.866.733,7.826,1.381,11.61a22.549,22.549,0,0,1,.373,6.209c-.242,2.243-1.373,3.938-2.226,5.958-1.418,3.358.5,7.562,4.584,6.325,1.091-.33,1.236-.026,1.754.942a16.361,16.361,0,0,1,1.256,2.9,4.241,4.241,0,0,1-1.372,5,15.434,15.434,0,0,0-5.07,9.428,48.688,48.688,0,0,0-.554,5.509,10.423,10.423,0,0,0,.638,4.986c1.805,3.875,6.157,1.816,9.312,3.178,3.383,1.46,5.574,4.809,6.5,8.261,2.276,8.455-1.138,17.426,1.7,25.831.543,1.608,1.6,3.146,3.533,2.457,1.632-.582,2.311-2.368,4.075-2.743,3.773-.8,7.041,2.268,10.148,3.844,4.027,2.044,8.141,1.72,12.441.844,3.536-.721,7.208-1.633,10.75-.417a6.018,6.018,0,0,1,3.367,2.658,1.52,1.52,0,0,0,2.053.539,8.279,8.279,0,0,0,3.7-7.739,9.458,9.458,0,0,0-5.124-7.589c-3.108-1.644-6.206-1.5-9.576-1.113-1.075.124-3.006.48-3.922-.319-1.369-1.195.884-3.048,1.794-3.657,2.808-1.882,5.873-4,4.72-7.887-.5-1.7-1.625-3.122-2.165-4.8a11.575,11.575,0,0,1-.49-4.473,14.363,14.363,0,0,1,3.689-8.306,14.117,14.117,0,0,1,3.636-2.917,35.922,35.922,0,0,0,4.06-2.286,5.962,5.962,0,0,0,2.659-4.024c.215-1.8-.663-3.344-1.567-4.825-.83-1.358-1.724-3.02.127-3.986,1.973-1.03,4.278.286,6.025,1.2a1.518,1.518,0,0,0,2.257-1.3l.282-11.766c.043-1.783.074-3.567.129-5.35.052-1.667.093-3.6,1.164-4.984.642-.828,1.946-1.691,2.93-.885,1.2.982-.022,1.836-.7,2.639a3.3,3.3,0,0,0-.969,3.124c.369,1.234-.186-.762.156.515a3.806,3.806,0,0,0,.31.851,3.546,3.546,0,0,0,1.236,1.281c2.674,1.636,5.276.1,7.314-1.719a12.665,12.665,0,0,1,3.838-2.246,9.525,9.525,0,0,0,3.734-2.856c3.75-4.614,6.606-12.02,3.316-17.588a8.644,8.644,0,0,0-6.7-4.437c-3.239-.2-5.755,1.949-8.772,2.635a4.176,4.176,0,0,1-3.343-.355c-1.087-.834-.9-2.283-.632-3.453.637-2.748,1.82-5.39.994-8.247-.788-2.728-3.132-4.826-3.7-7.6a7.974,7.974,0,0,1,.858-4.647c.737-1.736,1.546-3.444,2.32-5.164,2.818-6.258,6.389-12.874,6.019-19.949-.19-3.643-1.008-7.315-.158-10.936.4-1.711,1-3.1.912-4.894-.044-.854-.17-1.713-.134-2.571a9.38,9.38,0,0,0,.02-1.975,4.238,4.238,0,0,0-2.438-3.344c-1.719-.694-3.264.227-4.514,1.373-2.265,2.076-5.547,2.557-7.695,4.828-1.327,1.4.791,3.527,2.121,2.121,1.824-1.927,4.67-2.451,6.76-4.033.609-.46,1.778-2.063,2.494-1.281a2.208,2.208,0,0,1,.308,1.689,13.942,13.942,0,0,0,0,2.054c.043.627.11,1.255.108,1.884a6.492,6.492,0,0,1-.479,2.09,18.064,18.064,0,0,0-.81,4.512c-.188,3.3.6,6.551.532,9.841-.147,6.773-3.9,13.223-6.612,19.253-1.349,3-3.19,6.2-2.569,9.6.482,2.644,2.343,4.627,3.422,7.008,1.174,2.592-.042,5.021-.642,7.59-.609,2.605-.309,5.505,2.233,6.977,2.313,1.339,5.177.786,7.5-.192,2.547-1.07,5.32-2.774,7.977-1.052,5.64,3.654,2.433,11.971-.8,16.128a7.879,7.879,0,0,1-3.611,2.56,12,12,0,0,0-3.681,2.295c-.866.764-1.836,1.871-3.1,1.78a1.374,1.374,0,0,1-.966-.366,3.23,3.23,0,0,1-.088-.519c-.239-.753-.257.073,0-.358.744-1.262,1.963-1.86,2.152-3.449a4.227,4.227,0,0,0-1.508-3.62c-2.512-2.2-5.958-.732-7.619,1.743-2.04,3.039-1.5,7.491-1.584,10.963l-.3,12.5,2.257-1.3c-3.19-1.676-7.472-3.273-10.4-.176a4.678,4.678,0,0,0-1.127,4.4c.392,1.583,1.539,2.781,2.178,4.243,1.381,3.163-3.413,4.5-5.418,5.707a17.525,17.525,0,0,0-6.524,7.059,16.28,16.28,0,0,0-1.744,9.526,14.059,14.059,0,0,0,1.443,4.507c.766,1.5,2.075,3.3.774,4.872-1.106,1.338-2.863,2-4.167,3.112a5.89,5.89,0,0,0-2.382,4.812c.338,3.56,4.075,4.141,6.964,3.847a21.03,21.03,0,0,1,5.381-.295,8.724,8.724,0,0,1,5.069,2.513c2.2,2.343,2.272,6.765-.635,8.6l2.052.538c-1.629-2.787-4.54-4.167-7.652-4.582-3.673-.488-7.175.458-10.757,1.142a16.846,16.846,0,0,1-6.363.294,17.1,17.1,0,0,1-5.444-2.5c-2.986-1.809-6.282-3.475-9.879-2.661a6.634,6.634,0,0,0-2.023.833,5.96,5.96,0,0,0-1.917,1.717c-.207.443-.2-.182.011.324.272.636.083-.285.083-.283-.079-.487-.324-1-.45-1.48a21.191,21.191,0,0,1-.586-3.3c-.409-4.161.08-8.334.145-12.5.111-7.189-1.616-15.661-8.925-18.89a10.976,10.976,0,0,0-5.017-.929c-.8.037-1.895.244-2.56-.33a2.812,2.812,0,0,1-.708-1.76,22.551,22.551,0,0,1,.153-4.945,23.588,23.588,0,0,1,.972-5.167,10.165,10.165,0,0,1,2.608-4.3c1.326-1.263,2.706-2.3,3.3-4.117a8.419,8.419,0,0,0-.431-5.484c-.605-1.6-1.35-3.582-2.7-4.71a3.232,3.232,0,0,0-2.2-.786c-.636.022-1.911.744-2.436.457-1.472-.8.55-3.677.958-4.513,1.788-3.659,1.617-7.639.976-11.558-.585-3.578-1.965-7.479-1.352-11.128.352-2.093,1.782-5.517,4.522-4.424,2.123.847,3.268,3.661,4.55,5.381,1.755,2.355,4.351,4.48,7.507,3.652,3.269-.858,4.305-4.322,5.064-7.206.916-3.481,2.56-7.76,5.537-10.023.979-.745,3.16-1.319,3.652.314.339,1.122,2.189,1.6,2.742.358l3.075-6.92a20.429,20.429,0,0,0,2.076-6.383c.388-4.318-2.982-7.172-7.015-7.581-8.067-.817-14.294,6.931-18.389,12.807-1.364,1.958-2.343,4.268-1.614,6.666.233.769,2.783,4.764,1.238,5.288l1.459.385a15.813,15.813,0,0,1-5.444-14.5c.848-5.812,5.019-10.135,10.39-12.205a32.14,32.14,0,0,1,8.878-1.934c3.333-.279,6.634.012,9.967-.067a13.171,13.171,0,0,0,9.445-3.922,47.525,47.525,0,0,0,6.668-8.447,59.407,59.407,0,0,0,3-5.488,23.465,23.465,0,0,1,2.979-5.038c2.39-2.783,5.852-4.718,8.764-6.893,1.529-1.141.035-3.747-1.514-2.59Z"/><path class="cls-1" d="M155.044,1002.24a11.4,11.4,0,0,0,5.141-1.759,9.675,9.675,0,0,0,1.7-1.639c.323-.36.6-.717,1.116-.709.549.008,1.224.6,1.642.9a12.509,12.509,0,0,1,2.143,1.854,6.184,6.184,0,0,1,1.194,3.027c.384,1.837,1.352,4.315,3.681,4.092,2.4-.229,2.314-2.93,2.418-4.722.068-1.172.132-2.344.2-3.516a5.353,5.353,0,0,0,.131-1.007c-.109-.229-.581-.164-.517.135.044.2.425.551.557.756a11.559,11.559,0,0,1,1.733,6.208,9,9,0,0,0,1.934,5.795,13.873,13.873,0,0,1,2.938,6.063c.282,1.818.133,4.685-1.09,6.18-.646.789-1.77,1.037-2.588,1.609a9.215,9.215,0,0,0-2.049,2.158,5.632,5.632,0,0,1-2.111,2.036,7.093,7.093,0,0,1-2.978.438,6.785,6.785,0,0,1-5.1-1.883,3.956,3.956,0,0,0-2.155-1.519,25.523,25.523,0,0,1-3.506-.659c-.922-.355-.521-1.292-.773-2.158a5.769,5.769,0,0,0-1.645-2.557c-1.452-1.349-3.522-1.892-4.886-3.309-1.67-1.734-.941-4.339-1.977-6.347a8.864,8.864,0,0,0-2.233-2.389,3.954,3.954,0,0,1-1.229-2.852,15.666,15.666,0,0,1,0-1.787c.029-.6-.044-.667.5-.806.77-.2,1.61-.2,2.394-.4a25.524,25.524,0,0,1,5.421-1.232c1.926-.053,1.934-3.053,0-3a24.588,24.588,0,0,0-5.619,1.18c-1.648.445-3.925.266-5.042,1.759a5.429,5.429,0,0,0-.672,3.294,10.061,10.061,0,0,0,.475,3.479,6.428,6.428,0,0,0,1.935,2.726,3.793,3.793,0,0,1,1.721,2.6c.359,2.372.688,4.644,2.634,6.292,1.511,1.279,4.519,2.015,5.287,3.984.387.992.032,2.045.672,2.994a5.157,5.157,0,0,0,3.137,1.693,14.548,14.548,0,0,0,2,.337,1.463,1.463,0,0,1,1.326.666,7.519,7.519,0,0,0,2.61,1.925,12.492,12.492,0,0,0,6.65.863,7.828,7.828,0,0,0,5.537-3.547,7.035,7.035,0,0,1,2.655-2.183,5.889,5.889,0,0,0,2.5-2.338,12.727,12.727,0,0,0,1.21-7.222,15.044,15.044,0,0,0-2.852-6.914,10.27,10.27,0,0,1-1.836-2.867,24.791,24.791,0,0,1-.3-3.986,13.384,13.384,0,0,0-2.746-6.826c-1.438-1.777-3.943-1.659-4.753.628a14.178,14.178,0,0,0-.408,3.87l-.136,2.344a4.263,4.263,0,0,0-.054.938q-.174.584.571.112l-.216-.252c-.1-.678-.407-1.419-.551-2.107a9.437,9.437,0,0,0-.632-2.066,8.6,8.6,0,0,0-2.338-2.882c-1.942-1.638-4.625-3.69-7.122-1.873-.919.67-1.453,1.707-2.437,2.293a8.325,8.325,0,0,1-3.211,1.089c-1.9.214-1.919,3.217,0,3Z"/><path class="cls-1" d="M178.983,1032.68a11.22,11.22,0,0,0-2.851,4.333,10.358,10.358,0,0,0-.335,3.234c0,.362.126.995-.108,1.31.116-.156.009-.028-.161.021a3.323,3.323,0,0,0-.719.31,3.244,3.244,0,0,0-1.448,2.048,3.724,3.724,0,0,0,.172,2.568,2.147,2.147,0,0,0,1.128.921c.175.07.357.116.537.17l.463.135q.428.146-.213-.166l-.439-1.061c.167,1.6-.313,3.383.866,4.728a2.739,2.739,0,0,0,4.114.006,8.959,8.959,0,0,0,1.943-4.6c.374-1.826.781-3.637,1.3-5.428.245-.842.489-1.7.8-2.517.3-.793.926-1,1.468-1.608,1.091-1.228,1.139-3.154,1.4-4.687a3.088,3.088,0,0,0-.052-2.181,2.138,2.138,0,0,0-2.3-.807c-1.72.276-3.188,1.614-4.585,2.569-1.584,1.084-.085,3.684,1.514,2.591q1.006-.688,2.012-1.376c.28-.191.558-.385.852-.553a3.552,3.552,0,0,1,.381-.2q.579-.071.072-.169l-.69-.9c-.09-.311-.137.446-.162.59l-.22,1.272a4.95,4.95,0,0,1-.429,1.8c-.336.5-1,.745-1.38,1.245a6.792,6.792,0,0,0-.9,1.969q-.782,2.324-1.359,4.711c-.363,1.5-.569,3.053-1.014,4.532a5.759,5.759,0,0,1-.411,1.045c-.059.113-.432.529-.433.63l-.065.057.42.067c-.02.022-.077-.221-.08-.2a6.6,6.6,0,0,0-.09-.976,6.048,6.048,0,0,0-.108-2.195,2.2,2.2,0,0,0-1.576-1.133c.049.015-.619-.173-.618-.18l.272.3q.315.543.271.171c.069-.081-.009-.394.066-.51.178-.278.916-.411,1.271-.693,1.213-.964,1.237-2.462,1.23-3.885a6.572,6.572,0,0,1,.173-1.993,7.813,7.813,0,0,1,2.135-3.2c1.351-1.381-.768-3.5-2.121-2.121Z"/><path class="cls-1" d="M226.35,969.67a7.823,7.823,0,0,1,7.986.547,4.717,4.717,0,0,1,2.118,2.641c.233,1.249-.854,2.416-1.115,3.6a4.437,4.437,0,0,0,.463,3.111c.568,1.055,1.626,1.875,1.942,3.057.551,2.06-.5,4.3-.223,6.406a4.825,4.825,0,0,0,1.27,2.772c.876.9,2.17,1.166,3.058,2a1.693,1.693,0,0,1-.211,2.452,3.071,3.071,0,0,1-3.286.11c-1.185-.592-2.109-1.414-3.472-1.6a5.852,5.852,0,0,0-3.671.813,13.463,13.463,0,0,0-5.051,5.708,5.529,5.529,0,0,0,.937,6.667c1.742,1.641,4.064,2.041,6.128,3.088a4.041,4.041,0,0,1,2.178,1.95c.381,1.113-.456,2.13-1.285,2.774-1.938,1.508-4.541,1.787-6.556,3.183-4.424,3.062-3.3,8.834-.235,12.457,1.805,2.132,3.93,2.317,6.265.94.848-.5,1.713-1.229,2.737-.813,1.243.5,1.637,1.985,1.667,3.2.009.366.076,1.133-.295,1.244-.319.1-1.272-.574-1.545-.7a4.756,4.756,0,0,0-3.874-.351,9.073,9.073,0,0,0-3.354,2.7c-1.027,1.157-2.046,2.322-3.022,3.523a34.125,34.125,0,0,0-4.943,7.685c-.585,1.334-.962,2.712-1.419,4.09-.32.966-.7,2.146-1.795,2.408l1.46.385c-.661-.752-.238-2.63-.474-3.575a3.2,3.2,0,0,0-3.382-2.45,7.905,7.905,0,0,0-2.512.8c-1.054.445-2.124.855-3.216,1.2a19.968,19.968,0,0,1-6.215,1.056c-4.181-.042-7.651-2.251-10.988-4.537-.721-.495-1.28-.846-1.381-1.777a30.381,30.381,0,0,1-.069-3.151q0-1.649.047-3.3a11.375,11.375,0,0,0,.065-1.646c-.036-.292.156-.228-.019-.171-.293.1.528.125.577.126,4.052.082,6.691,2.533,9.8,4.741,2.965,2.105,6.753,2.993,10.008.913a10.276,10.276,0,0,0,3.526-4.189,12.9,12.9,0,0,0,1.772-5.516c-.006-1.859-1.079-3.324-1.494-5.073-.432-1.82.65-3.638.128-5.5-.879-3.131-4.46-3.846-7.265-3.987-3.793-.19-7.9-.245-11.055-2.685a7.772,7.772,0,0,1-2.84-4.108c-.494-1.95.318-3.9.566-5.823.554-4.29-2.315-6.74-5.054-9.517-1.1-1.109-2.437-2.6-2.146-4.293a2.424,2.424,0,0,1,.8-1.49c.648-.494,1.391-.128,2.079.1a4.864,4.864,0,0,0,4.6-.384,25.368,25.368,0,0,0,3.008-3.181c1.137-1.132,2.779-1.5,4.029-2.486,1.448-1.145,1.827-2.74,2.172-4.467.3-1.49.875-2.551,2.553-2.2a4.053,4.053,0,0,1,2.931,3.214c.778,2.815-.313,7.356,2.62,9.192a3.054,3.054,0,0,0,3.963-.669c1.018-1.211,1-2.817,1.255-4.292a8.4,8.4,0,0,1,2.416-4.613c1.185-1.152,2.711-2.293,2.621-4.137a3.238,3.238,0,0,0-1.027-2.135c-.524-.5-1.3-.818-1.619-1.506-.64-1.386.685-1.8,1.72-2.308,1.347-.662,2.75-1.2,4.1-1.865,1.734-.848.215-3.437-1.514-2.59-1.4.684-2.852,1.24-4.242,1.937a5.671,5.671,0,0,0-2.845,2.343,4.655,4.655,0,0,0,.8,4.872c.279.313,1.584.993,1.628,1.4.055.524-1.111,1.279-1.457,1.6a11.572,11.572,0,0,0-3.078,4.694,11.876,11.876,0,0,0-.539,2.5c-.069.553-.041,1.686-.46,2.1-.255.249-.3-.006-.485-.4a6.044,6.044,0,0,1-.379-2.3,17.7,17.7,0,0,0-.9-5.552c-1.168-3-4.372-5.376-7.7-4.323a4.766,4.766,0,0,0-3.051,3.345c-.539,1.773-.341,3.352-2.159,4.33a12.873,12.873,0,0,0-3.92,2.678c-.789.892-1.774,2.775-3.171,2.636-.8-.08-1.544-.536-2.331-.686a4.2,4.2,0,0,0-2.559.252,5.076,5.076,0,0,0-2.715,3.445c-.964,3.84,2.152,6.613,4.609,9.023,1.37,1.344,2.642,2.821,2.539,4.854-.108,2.107-1,4.074-.77,6.217a10.863,10.863,0,0,0,5.993,8.159c3.633,1.87,7.525,1.855,11.489,2.151,1.16.086,2.972.248,3.693,1.322a3.155,3.155,0,0,1,.118,2.322,9.007,9.007,0,0,0-.155,3.061c.293,1.772,1.7,3.427,1.469,5.263a12.581,12.581,0,0,1-2.35,5.287,5.125,5.125,0,0,1-5.057,2.118,10.924,10.924,0,0,1-4.386-2.414c-3.115-2.4-6.215-4.3-10.283-4.38-2.125-.043-3.4.865-3.558,3.045s-.137,4.4-.093,6.588c.039,1.976.154,3.768,1.814,5.08a37.488,37.488,0,0,0,5.062,3.307,17.97,17.97,0,0,0,11.6,2.193,28.2,28.2,0,0,0,6.3-1.769c.689-.274,2-1.139,2.762-1.043.48.059.37.687.389,1.216a5.766,5.766,0,0,0,1.162,3.929,1.5,1.5,0,0,0,1.46.385c2.381-.568,3.383-2.835,4.037-4.97a26.7,26.7,0,0,1,3.765-7.774,50.825,50.825,0,0,1,5.659-6.772c1.155-1.142,1.85-1.225,3.251-.527a4.685,4.685,0,0,0,3.352.709c2.816-.773,2.718-4.629,1.909-6.817-.891-2.407-3.381-4.249-6.014-3.522a18.564,18.564,0,0,0-3,1.534c-1.258.6-2.073-.705-2.691-1.685-1.248-1.982-2.04-4.906.012-6.659,1.945-1.66,4.75-1.88,6.815-3.387,2.032-1.484,3.517-3.9,2.549-6.446-.87-2.291-3.2-3.46-5.355-4.271-2.05-.772-5.261-1.8-4.176-4.625.761-1.98,3.247-5.442,5.673-5.3,1.276.075,2.345,1.272,3.537,1.7a6.272,6.272,0,0,0,4.028.067,4.959,4.959,0,0,0,3.266-5.761,4.54,4.54,0,0,0-2.075-2.7c-.988-.639-2.371-.948-2.6-2.278-.454-2.674,1.036-5.233-.214-7.873-.5-1.06-1.789-2-2.02-3.16-.245-1.225,1.062-2.717,1.2-3.977.339-3.135-2.452-5.7-5.048-6.926a11.091,11.091,0,0,0-9.569.282c-1.757.795-.233,3.381,1.514,2.59Z"/></g></g></svg>